<?xml version="1.0" encoding="UTF-8" standalone="no"?>
<!-- Created with Inkscape (http://www.inkscape.org/) -->

<svg
   xmlns:dc="http://purl.org/dc/elements/1.1/"
   xmlns:cc="http://creativecommons.org/ns#"
   xmlns:rdf="http://www.w3.org/1999/02/22-rdf-syntax-ns#"
   xmlns:svg="http://www.w3.org/2000/svg"
   xmlns="http://www.w3.org/2000/svg"
   xmlns:sodipodi="http://sodipodi.sourceforge.net/DTD/sodipodi-0.dtd"
   xmlns:inkscape="http://www.inkscape.org/namespaces/inkscape"
   width="18"
   height="18"
   id="svg2985"
   version="1.1"
   inkscape:version="0.48.5 r10040"
   sodipodi:docname="searchin.svg">
  <defs
     id="defs2987" />
  <sodipodi:namedview
     id="base"
     pagecolor="#ffffff"
     bordercolor="#666666"
     borderopacity="1.0"
     inkscape:pageopacity="0.0"
     inkscape:pageshadow="2"
     inkscape:zoom="11.197802"
     inkscape:cx="-13.112856"
     inkscape:cy="16"
     inkscape:current-layer="layer1"
     showgrid="true"
     inkscape:grid-bbox="true"
     inkscape:document-units="px"
     inkscape:window-width="1920"
     inkscape:window-height="1017"
     inkscape:window-x="-4"
     inkscape:window-y="-4"
     inkscape:window-maximized="1" />
  <metadata
     id="metadata2990">
    <rdf:RDF>
      <cc:Work
         rdf:about="">
        <dc:format>image/svg+xml</dc:format>
        <dc:type
           rdf:resource="http://purl.org/dc/dcmitype/StillImage" />
        <dc:title />
      </cc:Work>
    </rdf:RDF>
  </metadata>
  <g
     id="layer1"
     inkscape:label="Layer 1"
     inkscape:groupmode="layer"
     transform="translate(0,-14)">
    <rect
       style="fill:#000000;fill-opacity:0;fill-rule:evenodd;stroke:#000000;stroke-width:2.142;stroke-linecap:butt;stroke-linejoin:miter;stroke-opacity:1;stroke-miterlimit:4;stroke-dasharray:none"
       id="rect2993"
       width="15.371194"
       height="15.28189"
       x="1.3786823"
       y="15.428731" />
    <path
       style="fill:#000000;fill-opacity:0"
       id="path3763"
       d="M 10.889761,13.654045 C 10.68021,13.516906 10.483167,13.366654 10.310298,13.184867 10.199017,13.077169 10.15476,12.917815 10.048735,12.808898 9.9470018,12.692146 9.8757973,12.551839 9.8070784,12.413976 9.7093607,12.276643 9.6538708,12.118486 9.596854,11.961598 9.5523112,11.800496 9.5155271,11.638135 9.4716577,11.476683 c -0.042471,-0.164726 -0.05124,-0.334942 -0.057284,-0.504134 -0.00441,-0.178149 -0.00359,-0.356375 -0.00335,-0.534563 3.474e-4,-0.178755 5.492e-4,-0.35751 6.612e-4,-0.536265 0.00378,-0.1577284 0.045907,-0.3073189 0.109515,-0.4503113 C 9.5937758,9.31394 9.6709262,9.1788155 9.7496291,9.0447105 9.8323028,8.9251652 9.9134255,8.8036593 9.9803613,8.6745003 c 0.061503,-0.1218472 0.1263947,-0.2325 0.2163237,-0.3351488 0.08857,-0.0945 0.192662,-0.1671939 0.302008,-0.2353943 0.418178,-0.3320567 0.925226,-0.5541258 1.379118,-0.8146804 0.182143,-0.1045586 -0.05904,0.018732 0.129072,-0.074684 0.130002,-0.051848 0.250257,-0.1232083 0.375733,-0.1852451 0.152217,-0.04655 0.300229,-0.099236 0.457752,-0.127149 0.142294,-0.042514 0.270993,-0.1172658 0.411181,-0.1621724 0.15891,-0.039275 0.323584,-0.041761 0.486341,-0.045145 0.156488,-0.00808 0.307279,-0.056069 0.464381,-0.073173 0.17171,-0.014964 0.344228,-0.015566 0.516457,-0.016512 0.178594,-4.331e-4 0.35719,4.02e-5 0.535784,2.615e-4 0.17871,2.113e-4 0.357421,2.567e-4 0.536131,2.863e-4 0.178613,2.03e-5 0.357226,1.57e-5 0.53584,1.41e-5 0.167772,-0.017575 0.326052,0.036328 0.489543,0.062594 0.136112,0.053784 0.274931,0.089868 0.410824,0.1431777 0.14185,0.026991 0.275911,0.075456 0.415365,0.1118001 0.127575,0.05213 0.24579,0.1242812 0.375071,0.1715742 0.117739,0.071515 0.245996,0.1163053 0.35505,0.2020248 0.115688,0.059319 0.216558,0.139184 0.322816,0.2131364 0.115441,0.060115 0.224767,0.1373289 0.318498,0.2280313 0.118137,0.069478 0.220367,0.1640575 0.341481,0.2288891 0.120275,0.082022 0.240487,0.1596367 0.327637,0.2781049 0.09276,0.1119584 0.19316,0.2176353 0.26909,0.3420374 0.08143,0.1151176 0.16733,0.2225881 0.221548,0.3537449 0.06778,0.1213487 0.101999,0.255888 0.152395,0.3845015 0.05664,0.1513019 0.06912,0.313105 0.103895,0.4699004 0.02983,0.1795607 0.0815,0.3540881 0.118027,0.5322111 0.03416,0.180269 0.04103,0.363868 0.04538,0.546801 0.0028,0.179052 0.002,0.358136 0.0017,0.537203 0.0019,0.204021 -0.0397,0.405183 -0.06294,0.607293 -0.01366,0.197643 -0.02617,0.393418 -0.06176,0.588494 -0.03568,0.166257 -0.09247,0.325988 -0.154557,0.483778 -0.0588,0.147028 -0.126462,0.291438 -0.219482,0.419976 -0.09687,0.128596 -0.205794,0.245696 -0.321374,0.357349 -0.120821,0.143366 -0.237553,0.290222 -0.359873,0.432415 -0.09885,0.127621 -0.216668,0.236335 -0.336422,0.343652 -0.497801,0.405583 -1.07936,0.686415 -1.633789,1.00608 -0.02973,0.01338 -0.11735,0.05657 -0.08919,0.04014 1.355757,-0.791354 1.530879,-0.860428 -0.148675,0.09047 -0.07015,0.03971 -0.14948,0.04859 -0.220871,0.08746 -0.135076,0.04877 -0.252932,0.11998 -0.394776,0.150497 -0.16378,0.03341 -0.332571,0.01098 -0.495193,0.04605 -0.17668,0.04052 -0.357194,0.05601 -0.537773,0.06517 -0.170751,0.0205 -0.324333,0.08929 -0.487165,0.136898 -0.163624,0.03965 -0.33269,0.04354 -0.500148,0.04732 -0.168417,-0.01785 -0.323638,0.01981 -0.486248,0.05269 -0.162257,0.03511 -0.330336,0.01592 -0.49134,0.05297 -0.109548,0.02161 -0.221822,0.03923 -0.321622,0.09288 -0.04155,0.02233 -0.07739,0.05418 -0.118223,0.07779 1.887045,-1.236054 1.237084,-0.708447 0.813389,-0.438467 -0.121272,0.09707 -0.232465,0.203 -0.326057,0.327077 -0.08849,0.145837 -0.174549,0.293494 -0.260125,0.441399 -0.09063,0.15019 -0.146054,0.311147 -0.175949,0.483023 -0.02372,0.174335 -0.02353,0.350688 -0.02432,0.526277 -2.8e-5,0.178668 7.97e-4,0.357336 0.0012,0.536004 3.67e-4,0.178659 4.19e-4,0.357318 4.58e-4,0.535978 2.4e-5,0.178608 1.4e-5,0.357217 10e-6,0.535826 -0.001,0.200314 -0.0012,0.400626 -8.12e-4,0.600944 0.0021,0.175011 -0.01042,0.349797 0.02123,0.522614 0.02331,0.121677 0.04066,0.242843 0.07638,0.361613 0,0 -1.164613,0.637595 -1.164613,0.637595 l 0,0 c -0.03824,-0.123239 -0.06154,-0.246819 -0.08213,-0.374188 -0.03733,-0.181258 -0.03335,-0.362362 -0.02963,-0.547024 3.58e-4,-0.200044 2.23e-4,-0.400084 -8e-4,-0.600125 4e-6,-0.178601 1.3e-5,-0.357202 2e-6,-0.535804 -2.2e-5,-0.178584 -4.7e-5,-0.357168 -3.37e-4,-0.535752 -3.41e-4,-0.178846 -9.96e-4,-0.35769 -0.0015,-0.536535 3.1e-5,-0.181107 -9.23e-4,-0.362621 0.01575,-0.543142 0.02203,-0.182619 0.05923,-0.362917 0.156793,-0.522068 0.07283,-0.16047 0.188427,-0.294842 0.252492,-0.460204 0.09146,-0.131788 0.183402,-0.256337 0.30908,-0.357114 0.397036,-0.405859 1.216183,-0.282054 1.452678,-0.892103 0.144796,-0.07787 0.30474,-0.108762 0.466471,-0.131776 0.163734,-0.01438 0.328721,-0.02111 0.489462,-0.05869 0.164776,-0.03252 0.329828,-0.03286 0.497441,-0.03469 0.162241,-0.0087 0.325357,-0.02209 0.479778,-0.07672 0.163621,-0.05619 0.331721,-0.09717 0.504895,-0.110212 0.178787,-0.01468 0.355437,-0.04215 0.532044,-0.07327 0.162751,-0.01224 0.328849,-0.01204 0.48567,-0.06311 0.129833,-0.04976 0.253739,-0.113735 0.383281,-0.164589 0.05991,-0.02193 0.08411,-0.02899 0.141907,-0.05756 0.02387,-0.0118 0.09315,-0.05159 0.07013,-0.03821 -2.221834,1.290599 -0.523976,0.293692 0.23568,-0.129507 -0.348786,0.201451 -0.698617,0.401102 -1.046357,0.604353 -0.02806,0.0164 0.05904,-0.02743 0.08717,-0.04371 0.09069,-0.05251 0.162897,-0.127161 0.250312,-0.184021 0.02829,-0.0184 0.05876,-0.03318 0.08814,-0.04977 0.116445,-0.10691 0.238675,-0.205941 0.343037,-0.324147 0.11451,-0.150935 0.253685,-0.282409 0.357577,-0.441624 0.102196,-0.121871 0.233742,-0.215466 0.322085,-0.34941 0.106787,-0.111427 0.171538,-0.240499 0.237854,-0.377911 0.05186,-0.156646 0.125683,-0.303771 0.165442,-0.465078 0.0366,-0.193135 0.06843,-0.382867 0.06808,-0.580544 0.02059,-0.198226 0.06201,-0.394834 0.06761,-0.59377 3.42e-4,-0.178237 0.0011,-0.35648 -3.79e-4,-0.534713 -0.0026,-0.175882 -0.006,-0.35249 -0.03444,-0.526494 -0.0331,-0.177721 -0.08884,-0.349649 -0.116754,-0.528371 -0.035,-0.150354 -0.05132,-0.303538 -0.09698,-0.4510335 C 19.115402,9.8435443 19.081149,9.7097089 19.013847,9.5882774 18.966185,9.4631492 18.875232,9.3659505 18.803935,9.2538503 18.72997,9.1335795 18.628057,9.0342212 18.540507,8.9240058 18.460562,8.8237902 18.345998,8.7600561 18.241335,8.6886289 18.118902,8.6100633 17.999175,8.5252773 17.883524,8.4375858 17.787346,8.3557208 17.681625,8.287424 17.573373,8.2226274 17.469522,8.1454681 17.358992,8.0800237 17.250662,8.0096519 17.143117,7.941335 17.02576,7.8914807 16.912907,7.832843 16.792029,7.777469 16.673668,7.715573 16.547047,7.6737082 16.406475,7.630809 16.262833,7.6010125 16.124295,7.5519872 15.99563,7.5028991 15.861363,7.4673186 15.729227,7.4294208 c -0.157534,-0.03001 -0.312841,-0.058944 -0.474503,-0.044984 -0.178619,-4e-7 -0.357238,1.7e-6 -0.535856,-4.28e-5 -0.178732,-5.76e-5 -0.357463,-1.574e-4 -0.536194,-3.964e-4 -0.178327,-2.05e-4 -0.356663,-7.552e-4 -0.534984,0.00114 -0.169576,0.00277 -0.339726,0.00607 -0.507834,0.03073 -0.15662,0.025904 -0.311001,0.068287 -0.471278,0.061951 -0.156813,0.00835 -0.3158,0.019274 -0.462322,0.0811 -0.135985,0.060093 -0.275741,0.1119785 -0.42102,0.1452213 -0.149792,0.039457 -0.300298,0.086713 -0.438663,0.1567326 -0.121968,0.066798 -0.251259,0.1199636 -0.374009,0.1855115 -0.704771,0.40251 1.564756,-0.948035 0.759687,-0.4370716 -0.09286,0.091604 -0.220747,0.1279424 -0.305013,0.2278356 -0.112384,0.077625 -0.183478,0.1722934 -0.23216,0.300028 -0.08582,0.1192665 -0.137665,0.2622098 -0.228559,0.3796095 -0.0978,0.1120653 -0.15176,0.2654402 -0.235296,0.3892023 -0.07438,0.1230495 -0.117373,0.2518945 -0.139132,0.3943735 -9e-5,0.1787942 -2.45e-4,0.3575883 -6.06e-4,0.5363822 -3.03e-4,0.1768495 -0.0011,0.3537185 0.0018,0.5305515 0.0041,0.159554 0.0087,0.32035 0.04464,0.476577 0.04091,0.158608 0.08191,0.31589 0.118239,0.475476 0.05471,0.152396 0.109004,0.305063 0.202504,0.439014 0.06384,0.127613 0.132317,0.255858 0.227292,0.363308 0.0964,0.116865 0.15094,0.26138 0.254104,0.374593 0.165176,0.172827 0.351014,0.319566 0.560858,0.435482 0,0 -1.111163,0.722302 -1.111163,0.722302 z"
       inkscape:connector-curvature="0" />
    <path
       style="fill:#000000;fill-opacity:0"
       id="path3765"
       d="m 18.248011,11.278298 c -0.238045,0.111841 -0.496008,0.175318 -0.737191,0.277328 -0.236009,0.08882 -0.48982,0.09608 -0.738794,0.107783 -0.283493,0.03054 -0.562368,0.08539 -0.844082,0.12795 -0.297474,0.03197 -0.595868,0.04221 -0.886955,0.115919 -0.2713,0.06761 -0.5418,0.137438 -0.811659,0.210731 -0.249054,0.07083 -0.492938,0.148858 -0.735023,0.24021 -0.229683,0.08193 -0.457701,0.17575 -0.675983,0.285122 -0.252321,0.07386 -0.483525,0.202896 -0.732182,0.284363 -0.200101,0.09494 -0.410942,0.162882 -0.620127,0.234777 -0.193261,0.09106 -0.391911,0.177646 -0.598012,0.235854 -0.156434,0.07864 -0.307112,0.166172 -0.461637,0.24782 -0.02426,0.0091 -0.04977,0.01548 -0.07279,0.0274 -0.04161,0.02154 -0.161113,0.09572 -0.12057,0.07224 1.749332,-1.013171 1.363707,-0.810804 0.977139,-0.5492 -0.103985,0.09771 -0.229322,0.166765 -0.326774,0.271138 -0.102748,0.10516 -0.211351,0.207605 -0.286115,0.335144 -0.07206,0.126625 -0.120136,0.25676 -0.143998,0.400198 0,0 -1.1895923,0.586512 -1.1895923,0.586512 l 0,0 c 0.01549,-0.152298 0.037405,-0.305978 0.1264008,-0.435181 0.05352,-0.151665 0.1523716,-0.266852 0.2669738,-0.37748 0.1659532,-0.160207 -0.070376,0.07364 0.095925,-0.111509 0.06335,-0.07053 0.1580853,-0.102124 0.2261552,-0.16803 0.052026,-0.05782 0.033269,-0.04583 0.09974,-0.08509 0.462843,-0.27334 0.904035,-0.561103 1.380412,-0.798724 0.151764,-0.08614 0.309191,-0.167932 0.47401,-0.22541 0.200806,-0.07251 0.39635,-0.158748 0.595003,-0.236749 0.208826,-0.07116 0.412659,-0.154882 0.617554,-0.23653 0.240727,-0.09855 0.483174,-0.192017 0.72302,-0.292395 0.224479,-0.100757 0.45091,-0.198218 0.684118,-0.277155 0.243124,-0.08982 0.493235,-0.155962 0.741579,-0.229645 0.270562,-0.07252 0.542215,-0.14193 0.815104,-0.204912 0.294831,-0.053 0.593417,-0.06657 0.889732,-0.108623 0.283669,-0.04615 0.566668,-0.09814 0.853753,-0.119126 0.244999,-0.01695 0.489403,-0.04382 0.717427,-0.142062 0.250147,-0.08443 0.49627,-0.17796 0.737837,-0.284911 0,0 -1.040394,0.822239 -1.040394,0.822239 z"
       inkscape:connector-curvature="0" />
    <path
       style="fill:#000000;fill-opacity:0"
       id="path3767"
       d="m 15.593416,12.227188 c -0.007,0.281298 -0.0047,0.562766 -0.0038,0.844132 0.0011,0.219247 0.0024,0.438493 0.003,0.657743 -0.0014,0.223149 -0.0018,0.446296 -0.0011,0.669449 -0.0023,0.205551 -0.0019,0.409824 0.0211,0.614184 0.03651,0.24122 0.03884,0.485769 0.09002,0.72447 0.06192,0.215743 0.102975,0.436301 0.15998,0.653206 0.06828,0.197456 0.131059,0.396976 0.18741,0.598221 0.04497,0.162666 0.08746,0.328113 0.143103,0.487578 0.01689,0.06286 0.05326,0.115982 0.0852,0.171688 0,0 -1.15091,0.663878 -1.15091,0.663878 l 0,0 c -0.03558,-0.06232 -0.07625,-0.122617 -0.09553,-0.192621 -0.05927,-0.161836 -0.09752,-0.333398 -0.143382,-0.49929 -0.05341,-0.202455 -0.118919,-0.401745 -0.189002,-0.598944 -0.05664,-0.21892 -0.0957,-0.441307 -0.15704,-0.659185 -0.059,-0.242031 -0.06591,-0.488596 -0.0984,-0.735003 -0.02924,-0.209318 -0.03924,-0.416727 -0.02976,-0.62836 6.43e-4,-0.222777 3.21e-4,-0.445548 -0.0011,-0.668321 6.47e-4,-0.220283 0.0019,-0.440562 0.003,-0.660843 8.52e-4,-0.280075 0.0033,-0.560256 -0.0038,-0.840262 0,0 1.180943,-0.60172 1.180943,-0.60172 z"
       inkscape:connector-curvature="0" />
    <path
       sodipodi:type="arc"
       style="fill:#000000;fill-opacity:0;stroke:#000000;stroke-width:1;stroke-miterlimit:4;stroke-opacity:1;stroke-dasharray:none"
       id="path3756"
       sodipodi:cx="8.2158985"
       sodipodi:cy="8.4892054"
       sodipodi:rx="2.7684004"
       sodipodi:ry="2.7237489"
       d="m 10.984299,8.4892054 a 2.7684004,2.7237489 0 1 1 -5.5368009,0 2.7684004,2.7237489 0 1 1 5.5368009,0 z"
       transform="matrix(1.313824,0,0,1.3189686,-2.444391,10.979648)" />
    <path
       style="fill:none;stroke:#000000;stroke-width:0.96633804px;stroke-linecap:butt;stroke-linejoin:miter;stroke-opacity:1"
       d="m 10.342345,24.571 3.784398,4.230914"
       id="path3770"
       inkscape:connector-type="polyline"
       inkscape:connector-curvature="0" />
  </g>
</svg>
